<svg width="1138" height="604" xmlns="http://www.w3.org/2000/svg"><g fill="none" fill-rule="evenodd"><path d="M1120 704.095s-107.623-139.336-245.369-200.29c98.57-113.803 136.453-285.686 136.453-285.686s-176.773-2.884-310.47 67.032C672.872 136.958 561.237 0 561.237 0s-111.55 135.862-140.173 283.503c-133.022-70.393-308.905-68.886-308.905-68.886S148.89 387.671 247.14 502.24C108.682 562.456 0 702.13 0 702.13s157.016 77.8 307.217 72.8c-38.858 145.028 1.481 315.422 1.481 315.422s160.371-73.98 250.468-194.842c89.3 121.452 249.193 196.49 249.193 196.49s41.604-170.76 3.336-316.219C962.132 781.624 1120 704.095 1120 704.095" fill="#FABF0D"/><path d="M421.065 284c-14.24 73.638-7.945 150.198 42.772 214.396-32.342-15.5-65.116-22.123-97.505-22.123-40.934 0-81.259 10.578-119.332 27.176 48.223 56.363 111.237 98.626 192 99.378-73.474 35.584-112.514 101.726-131.884 174.2 74.703-2.5 147.707-25.505 198.931-88.8C488.544 767.115 515.39 838.17 559.28 898c44.442-59.754 71.794-130.931 54.422-210.281 50.83 63.756 123.648 87.24 198.312 90.153-18.938-72.164-57.433-138.137-130.185-174.096 81.015-.245 144.49-42.404 193.172-98.758-38.58-17.115-79.524-28.06-121.124-28.06-32.126-.009-64.628 6.52-96.764 21.776 50.67-63.681 57.424-139.752 43.73-213.09v.01c-65.895 34.54-121.34 86.798-140.025 165.866-18.169-79.622-73.661-132.462-139.752-167.52" fill="#FF5100"/></g></svg>
