<svg width="160" height="28" xmlns="http://www.w3.org/2000/svg"><path d="M21.55 9.205c-1.798 0-4.593.69-6.009 3.53-1.033-2.302-3.177-3.53-5.78-3.53-2.22 0-4.67 1.19-5.32 3.453V9.589H0v17.912h4.44v-9.435c0-3.414 2.067-4.565 4.135-4.565 1.913 0 3.406 1.42 3.406 4.296v9.704h4.44v-9.013l.038.153c-.191-3.222 1.417-5.14 3.982-5.14 2.066 0 3.559 1.42 3.559 4.296v9.704h4.402V17.452c0-5.216-2.373-8.247-6.852-8.247zm21.053-8.131h-10.68v26.427h4.67v-9.474h6.01c5.818 0 8.306-4.18 8.306-8.476 0-4.22-2.488-8.477-8.306-8.477zm-.23 12.734h-5.78V5.255h5.895c2.68 0 3.751 2.224 3.751 4.296 0 2.148-1.11 4.257-3.866 4.257zm20.823-4.603c-1.799 0-4.67.96-5.55 3.107V0h-4.44v27.501h4.44v-9.359c0-3.452 2.526-4.564 4.555-4.564 1.99 0 3.712 1.458 3.712 4.296v9.627h4.44V17.452c0-5.216-2.564-8.247-7.157-8.247zm24.344.384v2.378c-1.225-1.88-3.713-2.762-5.971-2.762-4.709 0-8.766 3.568-8.766 9.321 0 5.715 4.096 9.359 8.804 9.359 2.182 0 4.708-.882 5.933-2.8V27.5h4.44V9.59h-4.44zm-5.244 14.115c-2.756 0-5.014-2.225-5.014-5.216 0-2.992 2.258-5.14 5.014-5.14 2.564 0 5.167 1.994 5.167 5.14 0 3.145-2.449 5.216-5.167 5.216zM105.3 9.205c-2.22 0-4.173 1.228-5.13 4.22V9.589h-4.44v17.912h4.478V21.25c0-5.024 1.608-7.863 4.518-7.863.65 0 1.569.115 2.602.652l.88-4.219c-.688-.383-1.837-.614-2.908-.614zm25.875 0c-1.8 0-4.593.69-6.01 3.53-1.033-2.302-3.177-3.53-5.78-3.53-2.22 0-4.67 1.19-5.32 3.453V9.589h-4.44v17.912h4.44v-9.435c0-3.414 2.067-4.565 4.134-4.565 1.914 0 3.407 1.42 3.407 4.296v9.704h4.44v-9.013l.038.153c-.191-3.222 1.417-5.14 3.98-5.14 2.068 0 3.561 1.42 3.561 4.296v9.704h4.402V17.452c0-5.216-2.373-8.247-6.852-8.247zm24.076.384v2.378c-1.224-1.88-3.712-2.762-5.97-2.762-4.709 0-8.766 3.568-8.766 9.321 0 5.715 4.095 9.359 8.804 9.359 2.181 0 4.708-.882 5.932-2.8V27.5h4.44V9.59h-4.44zm-5.243 14.115c-2.757 0-5.015-2.225-5.015-5.216 0-2.992 2.258-5.14 5.015-5.14 2.564 0 5.167 1.994 5.167 5.14 0 3.145-2.45 5.216-5.167 5.216z" fill="#FF5100" fill-rule="evenodd"/></svg>
